<svg width="57" height="65" viewBox="0 0 57 65" fill="none" xmlns="http://www.w3.org/2000/svg">
<path d="M5.46875 1.09375H1.28125C1.0036 1.09375 0.737327 1.20405 0.541001 1.40038C0.344674 1.5967 0.234378 1.86298 0.234375 2.14062V9.46875C0.234378 9.7464 0.344674 10.0127 0.541001 10.209C0.737327 10.4053 1.0036 10.5156 1.28125 10.5156H5.46875C5.7464 10.5156 6.01267 10.4053 6.209 10.209C6.40533 10.0127 6.51562 9.7464 6.51562 9.46875V8.42188H7.56563C7.56455 8.55487 7.5889 8.68684 7.63739 8.81068L11.3167 18.0089C11.7274 19.0421 12.4584 19.9164 13.4024 20.5037L20.125 24.7052V30.3262L16.0244 56.9802L11.2114 59.8679C11.0564 59.961 10.9281 60.0925 10.839 60.2499C10.7499 60.4072 10.7031 60.5849 10.7031 60.7656V62.8594C10.7031 63.137 10.8134 63.4033 11.0098 63.5996C11.2061 63.796 11.4724 63.9062 11.75 63.9062H21.1719C21.4495 63.9062 21.7158 63.796 21.9121 63.5996C22.1084 63.4033 22.2187 63.137 22.2188 62.8594V60.9282L28.5 41.1871L34.7812 60.9282V62.8594C34.7813 63.137 34.8915 63.4033 35.0879 63.5996C35.2842 63.796 35.5505 63.9062 35.8281 63.9062H45.25C45.5276 63.9062 45.7939 63.796 45.9902 63.5996C46.1866 63.4033 46.2969 63.137 46.2969 62.8594V60.7656C46.2969 60.5849 46.25 60.4072 46.161 60.2499C46.0719 60.0925 45.9436 59.961 45.7886 59.8679L40.9756 56.9802L36.875 30.3262V24.7052L43.5976 20.5036C44.5416 19.9164 45.2726 19.042 45.6833 18.0089L49.3626 8.81068C49.4111 8.68684 49.4355 8.55487 49.4344 8.42188H50.4844V9.46875C50.4844 9.7464 50.5947 10.0127 50.791 10.209C50.9873 10.4053 51.2536 10.5156 51.5312 10.5156H55.7188C55.9964 10.5156 56.2627 10.4053 56.459 10.209C56.6553 10.0127 56.7656 9.7464 56.7656 9.46875V2.14062C56.7656 1.86298 56.6553 1.5967 56.459 1.40038C56.2627 1.20405 55.9964 1.09375 55.7188 1.09375H51.5312C51.2536 1.09375 50.9873 1.20405 50.791 1.40038C50.5947 1.5967 50.4844 1.86298 50.4844 2.14062V3.1875H41.0625V2.14062C41.0625 1.86298 40.9522 1.5967 40.7559 1.40038C40.5595 1.20405 40.2933 1.09375 40.0156 1.09375H35.8281C35.5505 1.09375 35.2842 1.20405 35.0879 1.40038C34.8915 1.5967 34.7813 1.86298 34.7812 2.14062V9.46875C34.7813 9.7464 34.8915 10.0127 35.0879 10.209C35.2842 10.4053 35.5505 10.5156 35.8281 10.5156H40.0156C40.2933 10.5156 40.5595 10.4053 40.7559 10.209C40.9522 10.0127 41.0625 9.7464 41.0625 9.46875V8.42188H42.1094V9.17879L39.341 13.7927L32.6875 15.456V10.8326C32.6875 10.2068 32.5177 9.59269 32.1961 9.05581C31.8745 8.51894 31.4132 8.07941 30.8615 7.78411C30.3097 7.48881 29.6881 7.34881 29.063 7.37904C28.4379 7.40927 27.8327 7.60859 27.312 7.95575L24.7787 9.64459C24.6353 9.74018 24.5177 9.8697 24.4364 10.0217C24.355 10.1736 24.3125 10.3433 24.3125 10.5156V15.456L17.659 13.7927L14.8906 9.17879V8.42188H15.9375V9.46875C15.9375 9.7464 16.0478 10.0127 16.2441 10.209C16.4405 10.4053 16.7067 10.5156 16.9844 10.5156H21.1719C21.4495 10.5156 21.7158 10.4053 21.9121 10.209C22.1084 10.0127 22.2187 9.7464 22.2188 9.46875V2.14062C22.2187 1.86298 22.1084 1.5967 21.9121 1.40038C21.7158 1.20405 21.4495 1.09375 21.1719 1.09375H16.9844C16.7067 1.09375 16.4405 1.20405 16.2441 1.40038C16.0478 1.5967 15.9375 1.86298 15.9375 2.14062V3.1875H6.51562V2.14062C6.51562 1.86298 6.40533 1.5967 6.209 1.40038C6.01267 1.20405 5.7464 1.09375 5.46875 1.09375ZM4.42188 8.42188H2.32812V3.1875H4.42188V8.42188ZM52.5781 3.1875H54.6719V8.42188H52.5781V3.1875ZM38.9688 8.42188H36.875V3.1875H38.9688V8.42188ZM18.0312 3.1875H20.125V8.42188H18.0312V3.1875ZM12.7969 61.8125V61.3583L16.9194 58.8848L20.125 61.289V61.8125H12.7969ZM20.6211 59.044L18.1145 57.1641L20.2817 43.0776L25.1816 44.7109L20.6211 59.044ZM28.5 36.6875C28.2778 36.6875 28.0614 36.7582 27.8821 36.8893C27.7028 37.0204 27.5698 37.2052 27.5025 37.4169L25.8166 42.7155L20.6046 40.9783L22.07 31.4531H34.93L36.3954 40.9783L31.1834 42.7155L29.4975 37.4169C29.4302 37.2052 29.2972 37.0204 29.1179 36.8893C28.9386 36.7582 28.7222 36.6875 28.5 36.6875ZM31.8184 44.7109L36.7183 43.0776L38.8855 57.1641L36.3789 59.044L31.8184 44.7109ZM44.2031 61.3583V61.8125H36.875V61.289L40.0806 58.8848L44.2031 61.3583ZM35.2733 23.2372C35.1227 23.3313 34.9985 23.4622 34.9125 23.6175C34.8264 23.7728 34.7812 23.9474 34.7812 24.125V29.3594H22.2188V24.125C22.2188 23.9474 22.1736 23.7728 22.0875 23.6175C22.0015 23.4622 21.8773 23.3313 21.7267 23.2372L18.1139 20.9793L19.9011 16.5114L24.8166 17.7403C25.1753 18.4047 25.7071 18.9597 26.3555 19.3465C27.004 19.7333 27.745 19.9375 28.5 19.9375C29.2551 19.9375 29.996 19.7333 30.6445 19.3465C31.2929 18.9597 31.8247 18.4047 32.1834 17.7403L37.0989 16.5114L38.8861 20.9792L35.2733 23.2372ZM26.4062 15.75V13.6562H30.5938V15.75C30.5938 16.3053 30.3732 16.8379 29.9805 17.2305C29.5879 17.6232 29.0553 17.8438 28.5 17.8438C27.9447 17.8438 27.4121 17.6232 27.0195 17.2305C26.6268 16.8379 26.4062 16.3053 26.4062 15.75ZM50.4844 6.32812H48.9462L48.6845 5.28125H50.4844V6.32812ZM41.0625 6.32812V5.28125H42.1094V6.32812H41.0625ZM40.2695 15.7188C40.5389 15.6514 40.7705 15.4798 40.9134 15.2418L44.054 10.0074C44.1515 9.84465 44.2031 9.65849 44.2031 9.46875V5.28125H46.5264L47.2929 8.34737L43.7394 17.2313C43.4929 17.8512 43.0543 18.3758 42.4879 18.7281L40.6901 19.8518L39.1489 15.9989L40.2695 15.7188ZM28.4735 9.69775C28.6789 9.56084 28.9176 9.48224 29.1642 9.47034C29.4108 9.45843 29.6559 9.51367 29.8736 9.63016C30.0912 9.74665 30.2731 9.92002 30.3999 10.1318C30.5268 10.3435 30.5938 10.5858 30.5938 10.8326V11.5625H26.4062V11.0759L28.4735 9.69775ZM15.9375 6.32812H14.8906V5.28125H15.9375V6.32812ZM10.4736 5.28125H12.7969V9.46875C12.7969 9.65849 12.8485 9.84465 12.946 10.0074L16.0866 15.2418C16.2295 15.4798 16.4611 15.6514 16.7305 15.7188L17.8511 15.9989L16.3099 19.8518L14.5121 18.7282C13.9457 18.3758 13.5071 17.8512 13.2606 17.2313L9.70711 8.34737L10.4736 5.28125ZM8.31549 5.28125L8.05377 6.32812H6.51562V5.28125H8.31549Z" fill="#FF2625" stroke="white" stroke-width="0.4"/>
</svg>
