<svg width="68" height="64" viewBox="0 0 68 64" fill="none" xmlns="http://www.w3.org/2000/svg">
<mask id="path-1-inside-1_304_148" fill="white">
<path d="M67.2038 59.1603L62.06 56.0741L60.2925 39.2816C60.1453 37.8744 59.5593 36.5491 58.6173 35.4934C57.6753 34.4377 56.4252 33.7049 55.0438 33.399L39.625 29.9725V25.716L40.3523 24.9888C41.3273 24.0138 41.875 22.6914 41.875 21.3125C41.875 19.9336 41.3273 18.6112 40.3523 17.6362L37.6317 14.9156C38.2562 14.3886 38.7581 13.7316 39.1024 12.9905C39.4467 12.2495 39.625 11.4421 39.625 10.625V6.125C39.6257 4.95482 39.2612 3.81359 38.5824 2.86043C37.9035 1.90728 36.9442 1.18973 35.838 0.807819C34.7319 0.425913 33.5342 0.398696 32.4119 0.729962C31.2896 1.06123 30.2986 1.73446 29.5772 2.65579L28.3295 2.03191C27.7417 1.73806 27.0886 1.59934 26.4321 1.62891C25.7756 1.65848 25.1375 1.85536 24.5785 2.20086C24.0195 2.54636 23.5581 3.02901 23.2381 3.60299C22.918 4.17696 22.75 4.82321 22.75 5.48038V8.10199C22.7537 9.46803 22.4865 10.8212 21.9637 12.0833C21.441 13.3454 20.673 14.4912 19.7045 15.4545C19.5471 15.6118 19.44 15.8123 19.3966 16.0305C19.3532 16.2487 19.3755 16.4749 19.4607 16.6805C19.5458 16.886 19.69 17.0617 19.875 17.1854C20.06 17.309 20.2775 17.375 20.5 17.375H23.875C25.0287 17.3744 26.163 17.0781 27.1696 16.5144C28.1763 15.9508 29.0217 15.1386 29.6252 14.1554C29.9175 14.5171 30.253 14.8416 30.6244 15.1214C30.2058 15.4347 29.8339 15.8059 29.5196 16.2238L25.7875 21.2C24.5461 22.8553 23.875 24.8685 23.875 26.9375C23.875 29.0065 24.5461 31.0197 25.7875 32.675L26.125 33.125V37.4422L21.9392 50H1.375C1.07664 50 0.790496 50.1185 0.579521 50.3295C0.368546 50.5405 0.250015 50.8266 0.25 51.125V62.375C0.250015 62.6734 0.368546 62.9595 0.579521 63.1705C0.790496 63.3814 1.07664 63.5 1.375 63.5H3.625C3.81927 63.5 4.01024 63.4497 4.1793 63.354C4.34836 63.2583 4.48976 63.1204 4.58974 62.9538L7.5956 57.9439L24.606 59.7344C25.909 59.8715 27.2238 59.6264 28.39 59.0291C29.5561 58.4317 30.5232 57.508 31.1734 56.3704L38.0279 44.375H51.0777L54.25 60.2364V62.375C54.25 62.6734 54.3685 62.9595 54.5795 63.1705C54.7905 63.3814 55.0766 63.5 55.375 63.5H66.625C66.9234 63.5 67.2095 63.3814 67.4205 63.1705C67.6315 62.9595 67.75 62.6734 67.75 62.375V60.125C67.75 59.9307 67.6997 59.7398 67.604 59.5707C67.5083 59.4016 67.3704 59.2602 67.2038 59.1603ZM39.625 21.3125C39.626 21.6999 39.5502 22.0837 39.402 22.4416C39.2537 22.7996 39.0359 23.1245 38.7612 23.3977L37.7045 24.4545C37.4935 24.6655 37.375 24.9516 37.375 25.25V29.75H34.1328L33.0592 27.6027L37.6557 21.1676V21.1675C38.1238 20.5137 38.4082 19.7465 38.4796 18.9457L38.7612 19.2273C39.0359 19.5005 39.2537 19.8254 39.402 20.1834C39.5502 20.5413 39.626 20.9251 39.625 21.3125ZM34 2.75C34.6977 2.75089 35.3779 2.96762 35.9476 3.37046C36.5172 3.7733 36.9482 4.34251 37.1815 5H34C33.7016 5.00001 33.4155 5.11851 33.2045 5.32945L31.284 7.25H30.625V6.125C30.626 5.23021 30.9819 4.37236 31.6146 3.73965C32.2474 3.10693 33.1052 2.75102 34 2.75ZM23.875 15.125H22.8757C24.267 13.0476 25.0067 10.6023 25 8.10199V5.48038C25 5.20673 25.07 4.93763 25.2032 4.69862C25.3365 4.45961 25.5286 4.25864 25.7614 4.11477C25.9942 3.97091 26.2599 3.88893 26.5332 3.87662C26.8066 3.86432 27.0786 3.92209 27.3233 4.04446L28.5678 4.6667C28.4398 5.14224 28.375 5.63255 28.375 6.125V10.625C28.3736 11.8181 27.8991 12.9619 27.0555 13.8055C26.2119 14.6491 25.0681 15.1236 23.875 15.125ZM30.625 9.5H31.75C32.0484 9.49999 32.3345 9.38149 32.5455 9.17055L34.466 7.25H37.375V10.625C37.375 11.5201 37.0194 12.3786 36.3865 13.0115C35.7535 13.6444 34.8951 14 34 14C33.1049 14 32.2464 13.6444 31.6135 13.0115C30.9806 12.3786 30.625 11.5201 30.625 10.625V9.5ZM27.5876 22.55L31.3197 17.5737C31.6288 17.1636 32.0287 16.8307 32.488 16.601C32.9474 16.3713 33.4536 16.2512 33.9672 16.25C34.3866 16.25 34.7979 16.3656 35.156 16.584C35.5141 16.8024 35.805 17.1153 35.997 17.4883C36.1889 17.8612 36.2744 18.2798 36.244 18.6982C36.2136 19.1165 36.0686 19.5184 35.8248 19.8597L30.8346 26.846C30.7157 27.0125 30.6445 27.2081 30.6285 27.412C30.6125 27.6159 30.6523 27.8203 30.7438 28.0032L34.1188 34.7532C34.2522 35.02 34.4862 35.2229 34.7692 35.3173L37.8923 36.3583L38.2561 36.7222L37.8047 37.625H32.3125L27.5876 31.325C26.6382 30.0593 26.125 28.5197 26.125 26.9375C26.125 25.3553 26.6382 23.8157 27.5876 22.55ZM30.8499 39.425C30.9547 39.5647 31.0906 39.6781 31.2469 39.7562C31.4031 39.8343 31.5753 39.875 31.75 39.875H38.5C38.7089 39.875 38.9137 39.8168 39.0914 39.707C39.2691 39.5972 39.4128 39.44 39.5062 39.2532L40.6312 37.0032C40.7368 36.792 40.7733 36.5529 40.7355 36.3198C40.6977 36.0867 40.5875 35.8714 40.4206 35.7045L39.2956 34.5795C39.172 34.456 39.0215 34.363 38.8558 34.3077L35.9229 33.33L35.2579 32H38.3765L46.375 33.7775V42.125H32.875C31.6819 42.1236 30.5381 41.6491 29.6945 40.8055C28.8509 39.9618 28.3764 38.8181 28.375 37.625V36.1251L30.8499 39.425ZM2.98807 61.25H2.5V52.25H4.9527L5.81152 56.5441L2.98807 61.25ZM29.2197 55.2542C28.7862 56.0124 28.1414 56.6282 27.3641 57.0263C26.5867 57.4245 25.7103 57.588 24.8417 57.4968L7.94088 55.7178L7.24729 52.25H22.75C22.9861 52.25 23.2163 52.1757 23.4078 52.0377C23.5994 51.8996 23.7426 51.7048 23.8173 51.4808L24.8536 48.3721L31.3082 51.5994L29.2197 55.2542ZM32.4262 49.6428L25.5723 46.2159L27.2132 41.2932C27.8249 42.2384 28.6635 43.0155 29.6524 43.5538C30.6412 44.0921 31.7491 44.3744 32.875 44.375H35.4364L32.4262 49.6428ZM53.1032 43.0293C53.0522 42.7743 52.9144 42.5448 52.7132 42.38C52.5121 42.2151 52.2601 42.125 52 42.125H48.625V34.2775L54.5557 35.5954C55.4766 35.7994 56.3101 36.2879 56.9381 36.9917C57.5661 37.6956 57.9568 38.5791 58.0548 39.5173L59.8061 56.1543L56.1651 58.3389L53.1032 43.0293ZM65.5 61.25H56.5V60.762L61 58.062L65.5 60.7619V61.25Z"/>
</mask>
<path d="M67.2038 59.1603L62.06 56.0741L60.2925 39.2816C60.1453 37.8744 59.5593 36.5491 58.6173 35.4934C57.6753 34.4377 56.4252 33.7049 55.0438 33.399L39.625 29.9725V25.716L40.3523 24.9888C41.3273 24.0138 41.875 22.6914 41.875 21.3125C41.875 19.9336 41.3273 18.6112 40.3523 17.6362L37.6317 14.9156C38.2562 14.3886 38.7581 13.7316 39.1024 12.9905C39.4467 12.2495 39.625 11.4421 39.625 10.625V6.125C39.6257 4.95482 39.2612 3.81359 38.5824 2.86043C37.9035 1.90728 36.9442 1.18973 35.838 0.807819C34.7319 0.425913 33.5342 0.398696 32.4119 0.729962C31.2896 1.06123 30.2986 1.73446 29.5772 2.65579L28.3295 2.03191C27.7417 1.73806 27.0886 1.59934 26.4321 1.62891C25.7756 1.65848 25.1375 1.85536 24.5785 2.20086C24.0195 2.54636 23.5581 3.02901 23.2381 3.60299C22.918 4.17696 22.75 4.82321 22.75 5.48038V8.10199C22.7537 9.46803 22.4865 10.8212 21.9637 12.0833C21.441 13.3454 20.673 14.4912 19.7045 15.4545C19.5471 15.6118 19.44 15.8123 19.3966 16.0305C19.3532 16.2487 19.3755 16.4749 19.4607 16.6805C19.5458 16.886 19.69 17.0617 19.875 17.1854C20.06 17.309 20.2775 17.375 20.5 17.375H23.875C25.0287 17.3744 26.163 17.0781 27.1696 16.5144C28.1763 15.9508 29.0217 15.1386 29.6252 14.1554C29.9175 14.5171 30.253 14.8416 30.6244 15.1214C30.2058 15.4347 29.8339 15.8059 29.5196 16.2238L25.7875 21.2C24.5461 22.8553 23.875 24.8685 23.875 26.9375C23.875 29.0065 24.5461 31.0197 25.7875 32.675L26.125 33.125V37.4422L21.9392 50H1.375C1.07664 50 0.790496 50.1185 0.579521 50.3295C0.368546 50.5405 0.250015 50.8266 0.25 51.125V62.375C0.250015 62.6734 0.368546 62.9595 0.579521 63.1705C0.790496 63.3814 1.07664 63.5 1.375 63.5H3.625C3.81927 63.5 4.01024 63.4497 4.1793 63.354C4.34836 63.2583 4.48976 63.1204 4.58974 62.9538L7.5956 57.9439L24.606 59.7344C25.909 59.8715 27.2238 59.6264 28.39 59.0291C29.5561 58.4317 30.5232 57.508 31.1734 56.3704L38.0279 44.375H51.0777L54.25 60.2364V62.375C54.25 62.6734 54.3685 62.9595 54.5795 63.1705C54.7905 63.3814 55.0766 63.5 55.375 63.5H66.625C66.9234 63.5 67.2095 63.3814 67.4205 63.1705C67.6315 62.9595 67.75 62.6734 67.75 62.375V60.125C67.75 59.9307 67.6997 59.7398 67.604 59.5707C67.5083 59.4016 67.3704 59.2602 67.2038 59.1603ZM39.625 21.3125C39.626 21.6999 39.5502 22.0837 39.402 22.4416C39.2537 22.7996 39.0359 23.1245 38.7612 23.3977L37.7045 24.4545C37.4935 24.6655 37.375 24.9516 37.375 25.25V29.75H34.1328L33.0592 27.6027L37.6557 21.1676V21.1675C38.1238 20.5137 38.4082 19.7465 38.4796 18.9457L38.7612 19.2273C39.0359 19.5005 39.2537 19.8254 39.402 20.1834C39.5502 20.5413 39.626 20.9251 39.625 21.3125ZM34 2.75C34.6977 2.75089 35.3779 2.96762 35.9476 3.37046C36.5172 3.7733 36.9482 4.34251 37.1815 5H34C33.7016 5.00001 33.4155 5.11851 33.2045 5.32945L31.284 7.25H30.625V6.125C30.626 5.23021 30.9819 4.37236 31.6146 3.73965C32.2474 3.10693 33.1052 2.75102 34 2.75ZM23.875 15.125H22.8757C24.267 13.0476 25.0067 10.6023 25 8.10199V5.48038C25 5.20673 25.07 4.93763 25.2032 4.69862C25.3365 4.45961 25.5286 4.25864 25.7614 4.11477C25.9942 3.97091 26.2599 3.88893 26.5332 3.87662C26.8066 3.86432 27.0786 3.92209 27.3233 4.04446L28.5678 4.6667C28.4398 5.14224 28.375 5.63255 28.375 6.125V10.625C28.3736 11.8181 27.8991 12.9619 27.0555 13.8055C26.2119 14.6491 25.0681 15.1236 23.875 15.125ZM30.625 9.5H31.75C32.0484 9.49999 32.3345 9.38149 32.5455 9.17055L34.466 7.25H37.375V10.625C37.375 11.5201 37.0194 12.3786 36.3865 13.0115C35.7535 13.6444 34.8951 14 34 14C33.1049 14 32.2464 13.6444 31.6135 13.0115C30.9806 12.3786 30.625 11.5201 30.625 10.625V9.5ZM27.5876 22.55L31.3197 17.5737C31.6288 17.1636 32.0287 16.8307 32.488 16.601C32.9474 16.3713 33.4536 16.2512 33.9672 16.25C34.3866 16.25 34.7979 16.3656 35.156 16.584C35.5141 16.8024 35.805 17.1153 35.997 17.4883C36.1889 17.8612 36.2744 18.2798 36.244 18.6982C36.2136 19.1165 36.0686 19.5184 35.8248 19.8597L30.8346 26.846C30.7157 27.0125 30.6445 27.2081 30.6285 27.412C30.6125 27.6159 30.6523 27.8203 30.7438 28.0032L34.1188 34.7532C34.2522 35.02 34.4862 35.2229 34.7692 35.3173L37.8923 36.3583L38.2561 36.7222L37.8047 37.625H32.3125L27.5876 31.325C26.6382 30.0593 26.125 28.5197 26.125 26.9375C26.125 25.3553 26.6382 23.8157 27.5876 22.55ZM30.8499 39.425C30.9547 39.5647 31.0906 39.6781 31.2469 39.7562C31.4031 39.8343 31.5753 39.875 31.75 39.875H38.5C38.7089 39.875 38.9137 39.8168 39.0914 39.707C39.2691 39.5972 39.4128 39.44 39.5062 39.2532L40.6312 37.0032C40.7368 36.792 40.7733 36.5529 40.7355 36.3198C40.6977 36.0867 40.5875 35.8714 40.4206 35.7045L39.2956 34.5795C39.172 34.456 39.0215 34.363 38.8558 34.3077L35.9229 33.33L35.2579 32H38.3765L46.375 33.7775V42.125H32.875C31.6819 42.1236 30.5381 41.6491 29.6945 40.8055C28.8509 39.9618 28.3764 38.8181 28.375 37.625V36.1251L30.8499 39.425ZM2.98807 61.25H2.5V52.25H4.9527L5.81152 56.5441L2.98807 61.25ZM29.2197 55.2542C28.7862 56.0124 28.1414 56.6282 27.3641 57.0263C26.5867 57.4245 25.7103 57.588 24.8417 57.4968L7.94088 55.7178L7.24729 52.25H22.75C22.9861 52.25 23.2163 52.1757 23.4078 52.0377C23.5994 51.8996 23.7426 51.7048 23.8173 51.4808L24.8536 48.3721L31.3082 51.5994L29.2197 55.2542ZM32.4262 49.6428L25.5723 46.2159L27.2132 41.2932C27.8249 42.2384 28.6635 43.0155 29.6524 43.5538C30.6412 44.0921 31.7491 44.3744 32.875 44.375H35.4364L32.4262 49.6428ZM53.1032 43.0293C53.0522 42.7743 52.9144 42.5448 52.7132 42.38C52.5121 42.2151 52.2601 42.125 52 42.125H48.625V34.2775L54.5557 35.5954C55.4766 35.7994 56.3101 36.2879 56.9381 36.9917C57.5661 37.6956 57.9568 38.5791 58.0548 39.5173L59.8061 56.1543L56.1651 58.3389L53.1032 43.0293ZM65.5 61.25H56.5V60.762L61 58.062L65.5 60.7619V61.25Z" fill="#FF2625" stroke="white" stroke-width="0.2" mask="url(#path-1-inside-1_304_148)"/>
</svg>
